<?xml version="1.0" encoding="UTF-8"?>
<svg version="1.0" viewBox="0 0 48 48" xmlns="http://www.w3.org/2000/svg">
 <path d="m24.091 16.266l20.283 26.734-9.8861 0.011495s1.1548-1.0811 1.761-1.7615c1.437-1.613 1.0382-2.4713-5.095-10.965-3.6598-5.0682-6.8791-9.2149-7.1541-9.2149s-3.4943 4.1467-7.1541 9.2149c-6.1332 8.4936-6.532 9.3519-5.095 10.965 0.59175 0.66422 1.5086 1.743 1.5086 1.743l-9.6336 7e-3c4.4409e-16 0 20.465-26.734 20.465-26.734z"/>
 <path transform="translate(-.50794 -2.7101)" d="m29.079 11.492a4.5079 4.5079 0 1 1 -9.0159 0 4.5079 4.5079 0 1 1 9.0159 0z" fill="none" stroke="#000" stroke-linecap="round" stroke-linejoin="round" stroke-width="2.5"/>
</svg>
